PathFileType	4	(X/Y/Z)	Patient4_TMGait_0pt3_01_right_26.trc.trc
DataRate	CameraRate	NumFrames	NumMarkers	Units	OrigDataRate	OrigDataStartFrame	OrigNumFrames
50.000000000000	50.000000000000	4	33	mm	50.000000000000	53	       141
Frame#	Time	Sacral			L.Shoulder			Chest			R.Shoulder			Neck			R.ASIS			L.ASIS			R.Thigh.Superior			R.Thigh.Lateral			R.Thigh.Inferior			R.Patella			L.Thigh.Superior			L.Thigh.Lateral			L.Thigh.Inferior			L.Patella			L.Shank.Superior			L.Shank.Lateral			L.Shank.Inferior			R.Shank.Superior			R.Shank.Lateral			R.Shank.Inferior			R.Heel			R.Midfoot.Superior			R.Midfoot.Lateral			R.Toe			L.Heel			L.Midfoot.Lateral			L.Midfoot.Superior			L.Toe			L.Elbow			L.Wrist			R.Elbow			R.Wrist			
		X1	Y1	Z1	X2	Y2	Z2	X3	Y3	Z3	X4	Y4	Z4	X5	Y5	Z5	X6	Y6	Z6	X7	Y7	Z7	X8	Y8	Z8	X9	Y9	Z9	X10	Y10	Z10	X11	Y11	Z11	X12	Y12	Z12	X13	Y13	Z13	X14	Y14	Z14	X15	Y15	Z15	X16	Y16	Z16	X17	Y17	Z17	X18	Y18	Z18	X19	Y19	Z19	X20	Y20	Z20	X21	Y21	Z21	X22	Y22	Z22	X23	Y23	Z23	X24	Y24	Z24	X25	Y25	Z25	X26	Y26	Z26	X27	Y27	Z27	X28	Y28	Z28	X29	Y29	Z29	X30	Y30	Z30	X31	Y31	Z31	X32	Y32	Z32	X33	Y33	Z33	

53	48.930000000000	695.630754129274	979.750353289772	582.563571101434	869.737523656397	1415.629088093754	401.577211914318	972.050644660103	1346.490778087718	562.829508454246	889.003567818935	1418.979657168755	736.945269068234	855.307057451169	1477.340659938048	560.558865066139	931.528387599384	928.007423754631	696.409647840791	911.970992079535	949.004011816347	422.113118581965	987.301006534163	731.792617972389	655.145155946066	914.497987547533	610.766752805672	704.657725089544	995.936945912632	568.921923133541	621.805119683462	1000.782784999382	471.674898510048	623.148516628266	1003.511595413400	770.903815931569	449.630880301639	968.825473880026	643.148293393671	368.280749121245	1074.190743476458	585.990197326812	435.006672962194	1090.897745107775	495.225764453279	421.410568805314	1022.666255839988	428.820463932234	409.199451032901	878.361943134929	389.172937527945	365.923457001737	870.769247304828	255.841231500818	409.424729881895	952.964442765619	384.022516393419	622.156506133329	863.266357684920	290.104564169030	677.836636569513	885.472054190556	195.033571439626	607.869860495852	727.462646301579	43.607617291801	571.201699559097	899.684136898443	96.318329790237	608.043792741557	810.380871756813	37.070957602681	645.988766354184	1018.672143272550	43.316981196977	635.853482848372	684.790921532091	179.657106649829	455.008667215210	737.587743643884	148.570099410015	365.079434787709	843.543736726807	160.009667557960	379.440531017594	924.063702270473	57.979423537914	329.664995999614	845.375134589687	1058.907982457654	295.412918141909	908.293316014292	807.466042792822	293.231936200330	918.191313557419	1073.321349127010	865.196659065417	1071.305139938342	869.909177565888	917.540314737344	
54	48.950000000000	694.682306572423	977.497231209760	585.579575105567	865.760093639889	1412.838749879658	401.197484326953	970.491577057761	1344.565197109675	561.224914104187	890.029223692522	1417.647557361827	736.374322250310	853.904089955391	1475.353854763333	560.066564657170	931.812674657844	926.301525674492	697.070519204813	909.090501330356	947.022501224154	423.071554245566	987.338325236446	730.228094194787	654.927533516436	915.454437318333	608.832355728464	704.801252291975	996.137538279584	567.314637435510	621.017700818924	1000.868762110727	469.601590205336	622.045629805324	1002.789914245290	771.062723553345	450.005905411693	969.477794223609	643.053967544568	368.716471141318	1075.736534198586	587.301508709090	435.076197489641	1094.168496711382	497.361618844255	421.288294012433	1028.277154187651	429.587104659660	408.615554139846	885.542221681052	384.607632695489	365.758177098020	883.787374990245	250.631251848152	408.068138071812	951.822519018044	382.091209469826	621.247509215343	861.401059953187	289.074233687992	677.590748569215	881.522640750985	193.915380476271	607.237385888123	721.550451186265	43.749703508798	571.171200579174	893.697973643585	96.052574086852	607.684303134570	804.444971794755	37.137293970391	645.970585354154	1012.763010093761	42.884501131878	635.890340621313	701.619881460512	166.547029637679	454.182418029951	754.951143880257	138.392364862883	363.637758756062	860.403707745850	153.977458498405	377.425357393520	944.625767717716	55.900820434179	326.242463647702	829.215346031989	1056.360913517092	298.211703965564	873.225538902839	800.408983847202	297.382940801824	930.743896317544	1073.186348565606	864.658372324535	1096.564410217808	878.975409601370	913.217592946921	
55	48.970000000000	693.851479015682	975.959715704629	588.419059045623	861.732092341895	1410.744048050204	400.736625926130	969.055299136306	1343.224952509948	559.308053769661	891.404815261878	1416.864730348074	735.548641087212	852.644400365769	1473.942770681955	559.451077318860	932.166287123351	925.014683750556	697.333319742140	906.163273755491	945.575445406779	423.702601882390	986.852136624538	728.834641875108	654.373682202672	915.576156282500	607.309952245807	704.737903520560	995.287832786699	565.898173724984	619.979619936953	999.721712499072	467.881781323950	620.721720270407	1001.667607673018	771.393822695093	450.191583389436	969.403490638507	643.153454638078	368.987765718770	1076.333495104170	588.568599042183	435.000508970717	1096.358792639476	499.619935784733	421.095670949848	1033.125772156244	430.541560166526	407.894080575402	892.544120453642	379.647352891290	365.124829721765	897.166525671030	245.276091500605	406.331659590763	949.718588984891	380.543538502582	620.216801999685	858.893054752960	288.216962839845	677.303954951447	877.205540744352	193.015374639656	606.593998582393	715.621196269592	43.911281082159	571.158591187515	887.668527027647	95.775843637128	607.303393723450	798.501977976719	37.201133661929	645.963915647649	1006.838173021008	42.450873287325	635.925576926708	719.448952930392	152.718263000508	452.562304548697	773.544392356621	127.622667594363	361.604847217785	878.204165391530	147.749785232341	375.080217166146	966.464115804921	54.009338073870	322.890791729527	812.587129607287	1055.251800176978	300.634153876973	839.442145314094	796.514801967375	301.695571279632	943.372612073769	1074.034158289588	863.760530895641	1121.573886464205	889.893650638233	907.932353307983	
56	48.990000000000	693.157039123570	975.265029426521	591.066689740940	857.673373079686	1409.471806874716	400.207559976691	967.759069805354	1342.573515187859	557.075303042014	893.169488960505	1416.731318868482	734.458098929087	851.541663554233	1473.210920623760	558.721552967352	932.573738995789	924.237039709916	697.177207962150	903.261770607554	944.805216697341	423.967161517666	985.799660564072	727.683653019260	653.522306915702	914.762527931062	606.286493417005	704.509707627998	993.301456629234	564.735530953451	618.772562034076	997.242208803813	466.580113478371	619.286356251275	1000.129481611704	771.983629371796	450.202711960590	968.588704340332	643.530150425228	369.081128104420	1075.951974970526	589.846111185681	434.775377898153	1097.430841012022	502.048004622921	420.833268236523	1037.131449592412	431.764446975917	407.071706480957	899.339950847837	374.508231096075	364.010741395135	910.728540866484	240.074749996616	404.295969217057	946.558723686554	379.451240556055	619.157648307121	855.629559005616	287.595513709351	677.024913106618	872.468564956144	192.386466460328	606.000091584968	709.666242631167	44.092760012141	571.176741166884	881.610593003959	95.515553846789	606.948537144427	792.547343799887	37.258351153920	645.973628726593	1000.891489809859	42.037698911043	635.955465770249	738.063596078184	138.694615758552	450.186001586674	793.177431371184	116.706531389482	359.069147078388	896.718025372124	141.676448973763	372.535248100064	989.265251162051	52.596570600406	319.863569705846	795.635474875164	1055.709660302794	302.750225708125	807.349434949392	795.592593565290	306.117372694131	956.051806772237	1075.957109426776	862.526034399922	1146.072136262771	902.662447859518	901.787732736434	
